<svg xmlns="http://www.w3.org/2000/svg" width="22" height="18" fill="none" xmlnsv="https://vecta.io/nano"><path d="M11 0c5.392 0 9.878 3.88 10.819 9-.94 5.12-5.427 9-10.819 9S1.122 14.12.181 9C1.121 3.88 5.608 0 11 0zm0 16c2.04 0 4.018-.693 5.613-1.965s2.71-3.047 3.164-5.035c-.456-1.987-1.572-3.76-3.166-5.03S13.038 2.009 11 2.009 6.984 2.7 5.389 3.97 2.679 7.013 2.223 9c.454 1.988 1.57 3.764 3.164 5.035S8.961 16 11 16zm0-2.5A4.5 4.5 0 0 1 6.5 9 4.5 4.5 0 0 1 11 4.5 4.5 4.5 0 0 1 15.5 9a4.5 4.5 0 0 1-4.5 4.5zm0-2A2.5 2.5 0 0 0 13.5 9 2.5 2.5 0 0 0 11 6.5 2.5 2.5 0 0 0 8.5 9a2.5 2.5 0 0 0 2.5 2.5z" fill="#aeaeb3"/></svg>
