<svg xmlns="http://www.w3.org/2000/svg" width="18" height="22" fill="none" xmlnsv="https://vecta.io/nano"><path d="M8.999 17.155c3.829 0 7.179 1.591 9.001 3.965l-1.926.88c-1.483-1.697-4.097-2.825-7.074-2.825S3.408 20.303 1.925 22L0 21.119c1.822-2.374 5.17-3.964 8.999-3.964zM8.999 0c1.387 0 2.717.532 3.697 1.48s1.531 2.232 1.531 3.572v5.031c0 1.302-.52 2.553-1.452 3.494s-2.203 1.496-3.549 1.553l-.227.005c-1.387 0-2.717-.532-3.697-1.48s-1.531-2.232-1.531-3.572V5.052c0-1.302.52-2.553 1.452-3.493S7.426.062 8.773.005L8.999 0zm0 2.021c-.8 0-1.57.295-2.152.826a2.99 2.99 0 0 0-.98 2.027l-.005.178v5.031c-.001.789.317 1.547.885 2.113a3.19 3.19 0 0 0 2.16.919 3.2 3.2 0 0 0 2.212-.795 2.99 2.99 0 0 0 1.012-2.059l.005-.178V5.052a2.98 2.98 0 0 0-.919-2.143c-.588-.568-1.386-.888-2.218-.888z" fill="#7a7a80"/></svg>
