<svg xmlns="http://www.w3.org/2000/svg" width="20" height="18" fill="none" xmlnsv="https://vecta.io/nano"><path d="M17 16H3v1a1 1 0 0 1-1 1H1a1 1 0 0 1-.707-.293A1 1 0 0 1 0 17V7l2.48-5.788A2 2 0 0 1 4.32 0h11.36a2 2 0 0 1 1.838 1.212L20 7v10a1 1 0 0 1-1 1h-1a1 1 0 0 1-1-1v-1zm1-7H2v5h16V9zM2.176 7h15.648l-2.143-5H4.32L2.176 7zM4.5 13A1.5 1.5 0 0 1 3 11.5 1.5 1.5 0 0 1 4.5 10 1.5 1.5 0 0 1 6 11.5 1.5 1.5 0 0 1 4.5 13zm11 0a1.5 1.5 0 0 1-1.5-1.5 1.5 1.5 0 0 1 1.5-1.5 1.5 1.5 0 0 1 1.5 1.5 1.5 1.5 0 0 1-1.5 1.5z" fill="#7a7a80"/></svg>
