<svg xmlns="http://www.w3.org/2000/svg" width="200" height="22" fill="none" xmlnsv="https://vecta.io/nano"><g clipPath="url(#A)"><g fillRule="evenodd"><g fill="#e1e1e6"><path d="M77.147.436h-34.35v4.22h34.35V.436zm0 8.664h-34.35v4.22h34.35V9.1zm-34.35 8.664h34.35v4.22h-34.35v-4.22zM124.594.436h34.35v4.22h-34.35V.436zm19.071 21.547V7.704l-.188.092-3.417 1.69v12.496h3.605z"/></g><path d="M165.959.612l12.68 6.257-4.605 2.275-8.436-4.162V.436l.361.176zm33.988 16.773v4.545l-13.007-6.415 4.601-2.275 8.406 4.145zm0-12.399V.44l-.357.172-16.8 8.303h-.004l-4.602 2.279-12.586 6.217v4.55l17.192-8.496 4.601-2.275 12.556-6.204z" fill="#dc1637"/></g><g fill="#e1e1e6"><path d="M3.605 22H0v-3.797C.002 13.495 1.6 8.98 4.443 5.65S11.143.446 15.165.44h20.989v4.22H15.165c-3.064.005-6.002 1.431-8.169 3.966s-3.387 5.973-3.392 9.559V22z"/><path fillRule="evenodd" d="M85.325.433h-3.527v1.01l-.001.003-.001 1.084.001 1.869V22h3.605V5.399l3.1 1.6 27.67 14.976v.007h.013l.032.018h3.562v-3.397l-.002-.001v-7.501l-.006.003V.44h-3.606v16.316l-2.291-1.163L85.325.433z"/></g></g><defs><clipPath id="A"><path fill="#fff" d="M0 0h200v22H0z"/></clipPath></defs></svg>
